<?xml version="1.0" standalone="no"?>
<!DOCTYPE svg PUBLIC "-//W3C//DTD SVG 20010904//EN"
 "http://www.w3.org/TR/2001/REC-SVG-20010904/DTD/svg10.dtd">
<svg version="1.0" xmlns="http://www.w3.org/2000/svg"
 width="294.000000pt" height="44.000000pt" viewBox="0 0 294.000000 44.000000"
 preserveAspectRatio="xMidYMid meet">
<metadata>
Created by potrace 1.16, written by Peter Selinger 2001-2019
</metadata>
<g transform="translate(0.000000,44.000000) scale(0.100000,-0.100000)"
fill="#000000" stroke="none">
<path d="M807 433 c-3 -5 -8 -24 -12 -43 -12 -65 -16 -73 -28 -61 -6 6 -30 11
-52 11 -43 0 -78 -26 -104 -77 -14 -27 -14 -108 -1 -134 15 -27 86 -26 116 2
l23 21 -6 -21 c-4 -15 -1 -21 11 -21 9 0 16 2 16 5 0 6 60 287 66 308 5 17
-20 25 -29 10z m-62 -127 c44 -32 -1 -145 -67 -169 -25 -9 -48 19 -48 56 0 42
31 99 61 114 30 16 31 16 54 -1z"/>
<path d="M1207 418 c-4 -13 -18 -79 -32 -148 -14 -69 -28 -133 -31 -142 -4
-12 0 -18 10 -18 9 0 16 5 16 10 0 7 6 7 19 0 33 -17 86 -12 116 12 34 27 55
75 55 128 0 64 -13 80 -65 80 -24 0 -47 -4 -50 -10 -14 -22 -27 -9 -21 20 3
17 9 44 12 60 5 23 3 30 -9 30 -8 0 -17 -10 -20 -22z m107 -114 c51 -50 -32
-197 -93 -165 -27 15 -33 38 -21 80 9 36 50 83 80 94 8 3 16 6 17 6 1 1 9 -6
17 -15z"/>
<path d="M36 288 c-15 -73 -30 -143 -33 -155 -4 -16 -1 -23 10 -23 18 0 18 1
49 145 l23 110 20 -124 c11 -70 25 -126 32 -128 7 -3 42 47 80 111 37 64 69
112 71 108 1 -4 -8 -56 -21 -115 -22 -97 -23 -107 -7 -107 13 0 22 26 44 133
15 72 30 142 33 155 4 18 1 22 -18 22 -20 0 -36 -21 -94 -120 -38 -66 -73
-120 -76 -120 -3 0 -14 54 -24 120 -16 112 -19 120 -39 120 -21 0 -25 -11 -50
-132z"/>
<path d="M1731 273 c-36 -171 -35 -163 -16 -163 15 0 18 9 33 85 7 36 11 40
40 43 18 2 32 -1 32 -7 0 -6 9 -35 21 -66 14 -39 26 -55 38 -55 17 0 17 4 -5
64 -23 63 -23 65 -4 71 55 18 80 115 40 155 -16 16 -33 20 -84 20 l-63 0 -32
-147z"/>
<path d="M408 313 c-33 -35 -48 -73 -48 -124 0 -62 14 -79 62 -79 29 0 49 7
64 21 l23 21 -6 -21 c-4 -15 -1 -21 11 -21 9 0 16 3 16 8 1 4 11 55 24 115 17
76 20 107 12 107 -7 0 -17 -5 -23 -11 -8 -8 -13 -8 -17 0 -4 6 -26 11 -50 11
-33 0 -48 -6 -68 -27z m97 -7 c44 -32 -1 -145 -67 -169 -25 -9 -48 19 -48 56
0 42 31 99 61 114 30 16 31 16 54 -1z"/>
<path d="M886 315 c-33 -31 -46 -64 -46 -121 0 -64 25 -86 93 -82 40 2 53 7
55 21 3 15 -1 17 -25 11 -59 -16 -93 4 -93 53 0 19 5 23 34 23 80 0 133 49
106 99 -16 31 -88 29 -124 -4z"/>
<path d="M1390 338 c0 -2 9 -54 20 -117 l19 -114 -20 -34 c-24 -38 -51 -56
-73 -47 -11 4 -16 1 -16 -10 0 -20 58 -22 83 -3 13 10 187 310 187 323 0 2 -8
4 -17 4 -12 0 -34 -30 -68 -95 -27 -52 -52 -90 -54 -84 -2 6 -8 47 -15 92 -9
64 -15 83 -29 85 -9 2 -17 2 -17 0z"/>
<path d="M2002 324 c-33 -23 -52 -67 -52 -121 0 -70 19 -93 78 -93 80 0 123
49 124 141 0 67 -20 89 -81 89 -26 0 -56 -7 -69 -16z m97 -20 c20 -15 23 -23
19 -66 -8 -78 -65 -125 -113 -94 -57 38 -9 166 65 175 3 1 16 -6 29 -15z"/>
<path d="M2190 335 c0 -3 11 -28 25 -55 l25 -49 -50 -58 c-40 -46 -46 -59 -33
-62 11 -2 33 14 59 44 l41 48 18 -46 c12 -32 24 -47 36 -47 16 0 15 5 -8 59
l-26 60 47 53 c38 43 43 54 29 57 -11 2 -31 -12 -54 -39 l-37 -43 -21 42 c-12
22 -28 41 -36 41 -8 0 -15 -2 -15 -5z"/>
<path d="M2497 262 c-20 -92 -21 -124 -5 -140 16 -16 90 -15 107 1 11 9 14 10
18 0 3 -7 10 -13 17 -13 8 0 21 39 34 103 26 123 26 127 8 127 -10 0 -19 -20
-26 -57 -23 -111 -73 -168 -122 -142 -22 12 -22 26 6 142 13 53 13 57 -3 57
-14 0 -21 -17 -34 -78z"/>
<path d="M2765 318 c-27 -119 -43 -203 -40 -206 13 -14 34 13 40 50 11 69 40
125 74 142 37 19 36 19 54 1 13 -13 13 -25 -4 -102 -10 -48 -19 -88 -19 -90 0
-2 7 -3 15 -3 14 0 22 22 45 131 17 76 5 99 -51 99 -22 0 -49 -5 -60 -10 -13
-7 -19 -7 -19 0 0 20 -30 10 -35 -12z"/>
</g>
</svg>
