<?xml version="1.0" standalone="no"?>
<!DOCTYPE svg PUBLIC "-//W3C//DTD SVG 20010904//EN"
 "http://www.w3.org/TR/2001/REC-SVG-20010904/DTD/svg10.dtd">
<svg version="1.0" xmlns="http://www.w3.org/2000/svg"
 width="814.000000pt" height="72.000000pt" viewBox="0 0 814.000000 72.000000"
 preserveAspectRatio="xMidYMid meet">
<metadata>
Created by potrace 1.16, written by Peter Selinger 2001-2019
</metadata>
<g transform="translate(0.000000,72.000000) scale(0.100000,-0.100000)"
fill="#000000" stroke="none">
<path d="M6750 614 l0 -106 -31 26 c-26 22 -40 26 -92 26 -117 0 -167 -60
-167 -200 0 -140 50 -200 167 -200 51 0 66 4 91 25 29 24 30 24 35 5 3 -11 12
-20 21 -20 14 0 16 30 16 275 0 268 0 275 -20 275 -19 0 -20 -7 -20 -106z
m-61 -109 c38 -19 56 -67 55 -150 -1 -75 -20 -127 -53 -145 -11 -5 -40 -10
-65 -10 -36 0 -52 6 -76 28 -68 60 -60 226 12 276 28 20 90 21 127 1z"/>
<path d="M120 668 c-151 -81 -161 -381 -16 -477 35 -23 49 -26 131 -26 82 0
96 3 131 26 23 16 51 48 69 80 28 50 30 61 30 154 0 89 -3 106 -28 152 -41 79
-89 107 -191 111 -70 3 -87 0 -126 -20z m200 -40 c70 -36 95 -89 95 -203 0
-105 -17 -150 -73 -193 -31 -23 -45 -27 -106 -27 -84 0 -123 22 -159 88 -18
34 -22 58 -22 132 0 77 3 96 25 135 30 53 93 90 155 90 22 0 61 -10 85 -22z"/>
<path d="M2061 673 c-50 -25 -73 -68 -68 -126 5 -61 40 -99 114 -127 82 -31
131 -58 143 -79 18 -34 11 -70 -19 -103 -28 -32 -32 -33 -108 -33 -43 0 -93 4
-110 8 -29 8 -33 6 -33 -12 0 -30 36 -41 136 -41 92 0 122 10 164 55 21 22 25
37 25 85 0 76 -20 98 -134 145 -47 20 -96 46 -108 57 -31 29 -30 79 1 115 22
26 30 28 93 28 37 0 82 -4 99 -9 26 -7 32 -5 36 12 4 16 -2 22 -32 31 -56 16
-159 13 -199 -6z"/>
<path d="M4450 425 l0 -255 103 0 c122 0 166 11 213 52 61 54 78 99 78 208 0
109 -19 161 -76 203 -51 38 -92 47 -209 47 l-109 0 0 -255z m267 183 c58 -38
78 -86 78 -183 0 -66 -4 -87 -24 -123 -36 -62 -101 -92 -203 -92 l-78 0 0 216
0 216 93 -4 c81 -3 99 -7 134 -30z"/>
<path d="M7110 425 l0 -255 116 0 c173 0 215 26 222 135 4 61 3 66 -26 95 -17
16 -41 30 -54 30 -20 1 -20 2 8 14 43 19 64 53 64 103 0 104 -47 133 -215 133
l-115 0 0 -255z m254 186 c26 -24 34 -68 20 -106 -11 -28 -60 -45 -148 -51
l-86 -7 0 97 0 98 94 -4 c84 -3 97 -6 120 -27z m12 -232 c47 -47 29 -136 -32
-159 -14 -6 -63 -10 -110 -10 l-84 0 0 101 0 101 100 -4 c92 -3 102 -5 126
-29z"/>
<path d="M7986 628 c-3 -7 -7 -26 -10 -41 -5 -21 -14 -29 -36 -34 -42 -8 -42
-43 0 -43 l30 0 0 -140 c0 -193 9 -210 116 -210 47 0 54 2 54 20 0 17 -7 20
-50 20 -38 0 -52 4 -60 19 -5 11 -10 81 -10 155 l0 136 55 0 c48 0 55 2 55 20
0 18 -7 20 -55 20 l-55 0 0 45 c0 34 -4 45 -15 45 -9 0 -17 -6 -19 -12z"/>
<path d="M642 535 c-31 -26 -32 -26 -32 -6 0 14 -6 21 -20 21 -20 0 -20 -7
-20 -275 0 -268 0 -275 20 -275 19 0 20 7 20 106 l0 106 31 -26 c26 -22 40
-26 92 -26 78 0 117 22 146 82 28 58 29 175 2 233 -30 65 -53 79 -135 83 -66
4 -75 2 -104 -23z m168 -42 c66 -61 59 -228 -12 -277 -29 -20 -102 -20 -132
-1 -34 22 -50 68 -50 144 -1 114 34 160 121 161 33 0 50 -6 73 -27z"/>
<path d="M1059 537 c-19 -12 -44 -42 -57 -67 -20 -39 -23 -56 -19 -128 4 -91
17 -119 77 -159 60 -41 230 -27 230 19 0 17 -4 19 -22 13 -13 -4 -50 -9 -82
-12 -92 -9 -136 21 -155 107 l-9 40 139 0 139 0 0 48 c-1 62 -30 127 -69 146
-46 24 -131 21 -172 -7z m141 -27 c23 -12 40 -42 51 -87 l7 -33 -114 0 c-126
0 -127 0 -100 64 8 18 24 41 37 50 26 18 90 21 119 6z"/>
<path d="M1473 540 c-27 -16 -33 -17 -33 -5 0 8 -9 15 -20 15 -19 0 -20 -7
-20 -190 0 -183 1 -190 20 -190 19 0 20 7 20 118 0 136 11 183 47 212 38 30
116 28 148 -5 24 -23 25 -28 25 -175 l0 -150 26 0 26 0 -4 153 c-5 166 -14
199 -59 223 -42 21 -137 18 -176 -6z"/>
<path d="M2475 551 c-28 -13 -72 -61 -84 -94 -6 -16 -11 -58 -11 -95 0 -76 22
-133 64 -172 25 -22 36 -25 106 -25 74 0 81 2 111 30 44 42 59 83 59 165 0 82
-15 123 -59 165 -28 26 -40 30 -99 32 -37 2 -76 -1 -87 -6z m135 -46 c43 -22
64 -69 64 -145 0 -103 -44 -160 -124 -160 -80 0 -124 57 -124 160 0 104 41
160 117 160 21 0 51 -7 67 -15z"/>
<path d="M3309 531 l-29 -29 0 24 c0 17 -6 24 -20 24 -19 0 -20 -7 -20 -190 0
-183 1 -190 20 -190 19 0 20 7 20 106 0 182 32 244 126 244 37 0 44 3 44 20 0
18 -7 20 -56 20 -48 0 -59 -4 -85 -29z"/>
<path d="M3569 537 c-51 -34 -79 -97 -79 -179 0 -80 15 -121 59 -162 25 -24
42 -31 91 -34 83 -6 130 4 130 28 0 18 -6 19 -65 13 -116 -11 -168 36 -169
151 -1 122 50 173 161 163 53 -5 65 -4 70 9 9 25 -16 34 -93 34 -57 0 -78 -4
-105 -23z"/>
<path d="M3909 537 c-19 -12 -44 -42 -57 -67 -20 -39 -23 -56 -19 -128 4 -91
17 -119 77 -159 60 -41 230 -27 230 19 0 17 -4 19 -22 13 -13 -4 -50 -9 -82
-12 -92 -9 -136 21 -155 107 l-9 40 139 0 139 0 0 48 c-1 62 -30 127 -69 146
-46 24 -131 21 -172 -7z m141 -27 c23 -12 40 -42 51 -87 l7 -33 -114 0 c-126
0 -127 0 -100 64 8 18 24 41 37 50 26 18 90 21 119 6z"/>
<path d="M5145 551 c-28 -12 -53 -42 -55 -66 -8 -71 17 -100 112 -135 109 -40
144 -101 77 -135 -36 -19 -120 -19 -164 -1 l-35 15 0 -29 c0 -25 5 -30 35 -36
19 -3 69 -4 111 -2 71 3 78 6 105 36 65 72 28 137 -111 196 -60 25 -77 37 -85
60 -8 24 -6 31 15 48 21 17 35 20 90 15 36 -3 72 -8 81 -11 20 -9 35 22 19 38
-14 14 -168 19 -195 7z"/>
<path d="M5509 537 c-51 -34 -79 -97 -79 -179 0 -80 15 -121 59 -162 25 -24
42 -31 91 -34 83 -6 130 4 130 28 0 18 -6 19 -65 13 -116 -11 -168 36 -169
151 -1 122 50 173 161 163 53 -5 65 -4 70 9 9 25 -16 34 -93 34 -57 0 -78 -4
-105 -23z"/>
<path d="M5865 551 c-28 -13 -72 -61 -84 -94 -6 -16 -11 -58 -11 -95 0 -76 22
-133 64 -172 25 -22 36 -25 106 -25 74 0 81 2 111 30 44 42 59 83 59 165 0 82
-15 123 -59 165 -28 26 -40 30 -99 32 -37 2 -76 -1 -87 -6z m135 -46 c43 -22
64 -69 64 -145 0 -103 -44 -160 -124 -160 -80 0 -124 57 -124 160 0 104 41
160 117 160 21 0 51 -7 67 -15z"/>
<path d="M6279 531 l-29 -29 0 24 c0 17 -6 24 -20 24 -19 0 -20 -7 -20 -190 0
-183 1 -190 20 -190 19 0 20 7 20 106 0 182 32 244 126 244 37 0 44 3 44 20 0
18 -7 20 -56 20 -48 0 -59 -4 -85 -29z"/>
<path d="M7625 551 c-28 -13 -72 -61 -84 -94 -6 -16 -11 -58 -11 -95 0 -76 22
-133 64 -172 25 -22 36 -25 106 -25 74 0 81 2 111 30 44 42 59 83 59 165 0 82
-15 123 -59 165 -28 26 -40 30 -99 32 -37 2 -76 -1 -87 -6z m135 -46 c43 -22
64 -69 64 -145 0 -103 -44 -160 -124 -160 -80 0 -124 57 -124 160 0 104 41
160 117 160 21 0 51 -7 67 -15z"/>
<path d="M2812 398 c5 -213 21 -238 146 -238 55 0 94 15 114 44 4 6 8 1 8 -11
0 -16 6 -23 20 -23 19 0 20 7 20 190 0 183 -1 190 -20 190 -19 0 -20 -7 -20
-117 0 -137 -11 -184 -47 -213 -38 -30 -116 -28 -148 5 -24 23 -25 28 -25 175
l0 150 -26 0 -26 0 4 -152z"/>
<path d="M4950 360 c0 -183 1 -190 20 -190 19 0 20 7 20 190 0 183 -1 190 -20
190 -19 0 -20 -7 -20 -190z"/>
</g>
</svg>
